<svg xmlns="http://www.w3.org/2000/svg" width="25" height="17" viewBox="0 0 25 17"><defs><style>.cls-1{fill:#fff;}.cls-2{fill:#cf0f14;}.cls-3{fill:#00305b;}</style></defs><title>img_language_en</title><g id="Layer_2" data-name="Layer 2"><rect class="cls-1" width="25" height="17"/></g><g id="Layer_1" data-name="Layer 1"><rect class="cls-1" x="1" y="1" width="23" height="15"/><polyline class="cls-2" points="24 7 13.65 7 13.65 1 11.35 1 11.35 7 1 7 1 10 11.35 10 11.35 16 13.65 16 13.65 10 24 10"/><path class="cls-2" d="M16.33,11H18l6,3.88V16M8.67,6H7L1,2.12V1Zm0,5h1.71L2.71,16H1Zm7.67-5H14.62l7.67-5H24Z"/><path class="cls-3" d="M1,11v3.32L6.1,11M24,11v3.32L18.9,11ZM1,6V2.68L6.1,6ZM24,6V2.68L18.9,6ZM10.58,16V11.43L3.57,16Zm3.83,0V11.43l7,4.57ZM10.58,1V5.57L3.57,1Zm3.83,0V5.57l7-4.57Z"/></g></svg>